<?xml version="1.0"?>
<svg xmlns="http://www.w3.org/2000/svg" viewBox="0 0 50 50">
    <path style="line-height:normal;text-indent:0;text-align:start;text-decoration-line:none;text-decoration-style:solid;text-decoration-color:#000;text-transform:none;block-progression:tb;isolation:auto;mix-blend-mode:normal" d="M 10 2 C 8.346 2 7 3.346 7 5 L 7 45 C 7 46.654 8.346 48 10 48 L 40 48 C 41.654 48 43 46.654 43 45 L 43 5 C 43 3.346 41.654 2 40 2 L 10 2 z M 19.5 11 C 20.328 11 21 11.672 21 12.5 C 21 12.885 20.850328 13.232047 20.611328 13.498047 C 25.611328 13.498047 28 18 28 18 C 28 18 30.011719 13.498047 34.386719 13.498047 C 34.148376 13.232455 34 12.884674 34 12.5 C 34 11.672 34.672 11 35.5 11 C 36.328 11 37 11.672 37 12.5 C 37 13.328 36.328 14 35.5 14 C 35.056674 14 34.661402 13.804134 34.386719 13.498047 C 33.280719 14.880047 33.053766 18.295047 33.009766 19.998047 C 32.382766 19.953047 28.658297 19.805641 25.904297 22.306641 C 24.417297 23.655641 23.503156 25.510172 23.160156 27.826172 C 21.068156 25.132172 18.184 22.897 16 23 C 16 23 17.5 21 23 21 C 23 21 22.986328 16.060047 20.611328 13.498047 C 20.337328 13.804047 19.943 14 19.5 14 C 18.672 14 18 13.328 18 12.5 C 18 11.672 18.672 11 19.5 11 z M 33.443359 21.884766 L 36 27 L 34 28 L 34 31.996094 A 1.0001 1.0001 0 0 0 33.751953 32.03125 C 33.502544 32.09505 33.590829 32.085406 33.5625 32.097656 C 33.53417 32.109906 33.506043 32.123252 33.470703 32.138672 C 33.400033 32.169502 33.304202 32.211172 33.183594 32.259766 C 32.942378 32.356966 32.600736 32.483513 32.185547 32.605469 C 31.35517 32.849381 30.233314 33.068599 29.056641 33.001953 A 1.0001 1.0001 0 1 0 28.943359 34.998047 C 30.432686 35.082397 31.768377 34.811776 32.75 34.523438 C 32.938175 34.468163 33.042301 34.42158 33.203125 34.367188 L 34 40 L 30 38 L 26.919922 41.683594 L 24.558594 38.140625 L 20 39 L 21 35 L 18 32 L 25.021484 29.425781 C 25.121484 26.953781 25.858375 25.056781 27.234375 23.800781 C 29.509375 21.723781 32.83725 21.990141 32.90625 21.994141 C 33.10425 22.018141 33.282359 21.965766 33.443359 21.884766 z M 14.5 22 C 15.328 22 16 22.672 16 23.5 C 16 24.328 15.328 25 14.5 25 C 13.672 25 13 24.328 13 23.5 C 13 22.672 13.672 22 14.5 22 z M 31 24 A 1 1 0 0 0 30 25 A 1 1 0 0 0 31 26 A 1 1 0 0 0 32 25 A 1 1 0 0 0 31 24 z" font-weight="400" font-family="sans-serif" white-space="normal" overflow="visible"/>
</svg>
