<?xml version="1.0"?>
<svg xmlns="http://www.w3.org/2000/svg" viewBox="0 0 50 50">
    <path style="line-height:normal;text-indent:0;text-align:start;text-decoration-line:none;text-decoration-style:solid;text-decoration-color:#000;text-transform:none;block-progression:tb;isolation:auto;mix-blend-mode:normal" d="M 10 2 C 8.3550302 2 7 3.3550302 7 5 L 7 45 C 7 46.64497 8.3550302 48 10 48 L 40 48 C 41.64497 48 43 46.64497 43 45 L 43 5 C 43 3.3550302 41.64497 2 40 2 L 10 2 z M 10 4 L 40 4 C 40.56503 4 41 4.4349698 41 5 L 41 45 C 41 45.56503 40.56503 46 40 46 L 10 46 C 9.4349698 46 9 45.56503 9 45 L 9 5 C 9 4.4349698 9.4349698 4 10 4 z M 19.5 10 C 18.131133 10 17 11.131133 17 12.5 C 17 13.868867 18.131133 15 19.5 15 C 19.810796 15 20.106983 14.936241 20.382812 14.830078 C 21.864174 16.56163 21.955797 19.082537 21.955078 20.095703 C 19.732938 20.216824 18.049327 20.607417 17.011719 21.095703 C 16.64229 21.269552 16.356556 21.442468 16.109375 21.609375 C 15.671834 21.235486 15.113412 21 14.5 21 C 13.131133 21 12 22.131133 12 23.5 C 12 24.868867 13.131133 26 14.5 26 C 15.649978 26 16.623492 25.197774 16.908203 24.130859 C 17.67187 24.343332 18.599504 24.819551 19.533203 25.550781 C 20.788836 26.534134 22.030671 27.904465 23 29.324219 L 18.628906 31.072266 A 1.0001 1.0001 0 0 0 18.445312 32.832031 L 20.859375 34.441406 L 20.029297 37.757812 A 1.0001 1.0001 0 0 0 21.242188 38.970703 L 24.558594 38.140625 L 26.167969 40.554688 A 1.0001 1.0001 0 0 0 27.775391 40.630859 L 29.6875 38.285156 L 32.509766 39.871094 A 1.0001 1.0001 0 0 0 33.986328 38.835938 L 33.083984 33.419922 C 33.991903 33.142709 34.496094 32.869141 34.496094 32.869141 A 1.0001 1.0001 0 0 0 35 32 L 35 28.617188 L 36.447266 27.894531 A 1.0001 1.0001 0 0 0 36.894531 26.552734 L 33.984375 20.734375 C 33.964935 20.512294 33.884525 19.528677 33.9375 18.244141 C 33.990561 16.957364 34.273281 15.519721 34.646484 14.837891 C 34.914425 14.937297 35.199759 15 35.5 15 C 36.868867 15 38 13.868867 38 12.5 C 38 11.131133 36.868867 10 35.5 10 C 34.131133 10 33 11.131133 33 12.5 C 33 12.695222 33.026891 12.883447 33.070312 13.066406 C 30.086773 13.385773 28.675974 15.173333 27.929688 16.380859 C 27.063097 15.192749 25.383809 13.351774 21.931641 13.058594 C 21.973861 12.87805 22 12.692421 22 12.5 C 22 11.131133 20.868867 10 19.5 10 z M 19.5 12 C 19.787987 12 20 12.212013 20 12.5 C 20 12.787987 19.787987 13 19.5 13 C 19.212013 13 19 12.787987 19 12.5 C 19 12.212013 19.212013 12 19.5 12 z M 35.5 12 C 35.787987 12 36 12.212013 36 12.5 C 36 12.787987 35.787987 13 35.5 13 C 35.212013 13 35 12.787987 35 12.5 C 35 12.212013 35.212013 12 35.5 12 z M 32.337891 15.369141 C 32.096532 16.297415 31.974645 17.261349 31.9375 18.162109 C 31.908558 18.863917 31.919837 19.492846 31.939453 20.003906 C 30.979923 20.043646 29.574307 20.213813 28.087891 20.884766 C 26.180544 21.74572 24.255953 23.516548 23.425781 26.585938 C 22.60825 25.61567 21.710436 24.714542 20.765625 23.974609 C 20.077207 23.435472 19.364126 23.00262 18.642578 22.65625 C 19.602237 22.316039 20.903567 22 23 22 A 1.0001 1.0001 0 0 0 23.996094 21.083984 C 23.996094 21.083984 24.262561 18.122654 23.005859 15.380859 C 25.891071 16.206616 27.105469 18.447266 27.105469 18.447266 A 1.0001 1.0001 0 0 0 28.925781 18.376953 C 28.925781 18.376953 29.908916 16.172265 32.337891 15.369141 z M 32.384766 22.005859 L 34.658203 26.552734 L 33.552734 27.105469 A 1.0001 1.0001 0 0 0 33 28 L 33 31.328125 C 32.482884 31.563671 31.353609 32 29 32 A 1.0001 1.0001 0 1 0 29 34 C 29.788598 34 30.493145 33.936632 31.126953 33.845703 L 31.669922 37.105469 L 29.933594 36.128906 A 1.0001 1.0001 0 0 0 28.667969 36.369141 L 27.080078 38.318359 L 25.832031 36.445312 A 1.0001 1.0001 0 0 0 24.757812 36.029297 L 22.375 36.625 L 22.970703 34.242188 A 1.0001 1.0001 0 0 0 22.554688 33.167969 L 21.134766 32.222656 L 24.212891 30.990234 A 1.0001 1.0001 0 0 0 24.21875 30.988281 A 1.0001 1.0001 0 0 0 24.775391 30.642578 A 1.0001 1.0001 0 0 0 24.822266 30.580078 A 1.0001 1.0001 0 0 0 24.835938 30.5625 A 1.0001 1.0001 0 0 0 24.849609 30.541016 A 1.0001 1.0001 0 0 0 24.855469 30.53125 A 1.0001 1.0001 0 0 0 24.898438 30.455078 A 1.0001 1.0001 0 0 0 25.005859 29.886719 C 25.039569 25.343735 26.956417 23.591763 28.912109 22.708984 C 30.478587 22.001894 31.793809 21.989747 32.384766 22.005859 z M 14.5 23 C 14.787987 23 15 23.212013 15 23.5 C 15 23.787987 14.787987 24 14.5 24 C 14.212013 24 14 23.787987 14 23.5 C 14 23.212013 14.212013 23 14.5 23 z M 31 24 A 1 1 0 0 0 30 25 A 1 1 0 0 0 31 26 A 1 1 0 0 0 32 25 A 1 1 0 0 0 31 24 z"/>
</svg>
