<svg xmlns="http://www.w3.org/2000/svg" viewBox="0 0 50 50"><path style="line-height:normal;text-indent:0;text-align:start;text-decoration-line:none;text-decoration-style:solid;text-decoration-color:#000;text-transform:none;block-progression:tb;isolation:auto;mix-blend-mode:normal" d="M10 2C8.346 2 7 3.346 7 5v40c0 1.654 1.346 3 3 3h30c1.654 0 3-1.346 3-3V5c0-1.654-1.346-3-3-3H10zm9.5 9c.828 0 1.5.672 1.5 1.5 0 .385-.15.732-.39.998C25.61 13.498 28 18 28 18s2.012-4.502 6.387-4.502c-.24-.266-.387-.613-.387-.998 0-.828.672-1.5 1.5-1.5s1.5.672 1.5 1.5-.672 1.5-1.5 1.5c-.443 0-.84-.196-1.113-.502-1.106 1.382-1.333 4.797-1.377 6.5-.627-.045-4.352-.192-7.106 2.31-1.487 1.348-2.4 3.202-2.744 5.518-2.092-2.694-4.976-4.93-7.16-4.826 0 0 1.5-2 7-2 0 0-.014-4.94-2.39-7.502-.273.306-.667.502-1.11.502-.828 0-1.5-.672-1.5-1.5s.672-1.5 1.5-1.5zm13.943 10.885L36 27l-2 1v3.996a1 1 0 0 0-.248.035c-.25.065-.16.055-.19.068l-.09.04c-.072.032-.168.073-.288.122-.242.097-.583.224-.998.345-.83.244-1.953.464-3.13.397a1 1 0 1 0-.113 1.996c1.49.084 2.825-.186 3.807-.475.188-.055.292-.1.453-.156L34 40l-4-2-3.08 3.684-2.36-3.543L20 39l1-4-3-3 7.02-2.574c.1-2.472.838-4.37 2.214-5.625 2.275-2.076 5.603-1.81 5.672-1.806.198.024.376-.028.537-.11zM14.5 22c.828 0 1.5.672 1.5 1.5s-.672 1.5-1.5 1.5-1.5-.672-1.5-1.5.672-1.5 1.5-1.5zM31 24a1 1 0 0 0-1 1 1 1 0 0 0 1 1 1 1 0 0 0 1-1 1 1 0 0 0-1-1z" font-weight="400" font-family="sans-serif" overflow="visible"/></svg>