<svg xmlns="http://www.w3.org/2000/svg" viewBox="0 0 50 50"><path style="line-height:normal;text-indent:0;text-align:start;text-decoration-line:none;text-decoration-style:solid;text-decoration-color:#000;text-transform:none;block-progression:tb;isolation:auto;mix-blend-mode:normal" d="M10 2C8.355 2 7 3.355 7 5v40c0 1.645 1.355 3 3 3h30c1.645 0 3-1.355 3-3V5c0-1.645-1.355-3-3-3H10zm0 2h30c.565 0 1 .435 1 1v40c0 .565-.435 1-1 1H10c-.565 0-1-.435-1-1V5c0-.565.435-1 1-1zm9.5 6c-1.37 0-2.5 1.13-2.5 2.5s1.13 2.5 2.5 2.5c.31 0 .607-.064.883-.17 1.48 1.732 1.573 4.253 1.572 5.266-2.222.12-3.906.51-4.943 1-.37.174-.655.346-.903.513-.438-.375-.997-.61-1.61-.61-1.37 0-2.5 1.13-2.5 2.5s1.13 2.5 2.5 2.5c1.15 0 2.123-.802 2.408-1.87.764.213 1.692.69 2.625 1.42 1.256.984 2.498 2.354 3.467 3.774l-4.37 1.748a1 1 0 0 0-.185 1.76l2.414 1.61-.83 3.316a1 1 0 0 0 1.212 1.213l3.317-.83 1.608 2.415a1 1 0 0 0 1.607.076l1.913-2.345 2.822 1.586a1 1 0 0 0 1.476-1.034l-.902-5.416c.908-.277 1.412-.55 1.412-.55A1 1 0 0 0 35 32v-3.383l1.447-.722a1 1 0 0 0 .448-1.342l-2.91-5.82c-.02-.22-.1-1.204-.047-2.49.053-1.286.335-2.723.708-3.405.268.1.554.162.854.162 1.37 0 2.5-1.13 2.5-2.5S36.87 10 35.5 10 33 11.13 33 12.5c0 .195.027.383.07.566-2.983.32-4.394 2.107-5.14 3.315-.867-1.187-2.546-3.028-5.998-3.32.042-.182.068-.368.068-.56 0-1.37-1.13-2.5-2.5-2.5zm0 2c.288 0 .5.212.5.5 0 .288-.212.5-.5.5-.288 0-.5-.212-.5-.5 0-.288.212-.5.5-.5zm16 0c.288 0 .5.212.5.5 0 .288-.212.5-.5.5-.288 0-.5-.212-.5-.5 0-.288.212-.5.5-.5zm-3.162 3.37c-.24.927-.363 1.89-.4 2.792-.03.702-.018 1.33 0 1.842-.958.04-2.364.21-3.85.88-1.907.862-3.832 2.633-4.662 5.702-.818-.97-1.716-1.87-2.66-2.61-.69-.54-1.402-.973-2.123-1.32.96-.34 2.26-.656 4.357-.656a1 1 0 0 0 .996-.916s.267-2.96-.99-5.703c2.885.827 4.1 3.067 4.1 3.067a1 1 0 0 0 1.82-.07s.983-2.205 3.412-3.008zm.047 6.636l2.273 4.547-1.105.552A1 1 0 0 0 33 28v3.328c-.517.236-1.646.672-4 .672a1 1 0 1 0 0 2c.79 0 1.493-.063 2.127-.154l.543 3.26-1.736-.977a1 1 0 0 0-1.266.24l-1.588 1.948-1.248-1.873a1 1 0 0 0-1.074-.416l-2.383.595.596-2.383a1 1 0 0 0-.415-1.074l-1.42-.945 3.078-1.233a1 1 0 0 0 .006-.002 1 1 0 0 0 .555-.345 1 1 0 0 0 .047-.063 1 1 0 0 0 .014-.017 1 1 0 0 0 .014-.022 1 1 0 0 0 .005-.01 1 1 0 0 0 .043-.075 1 1 0 0 0 .108-.568c.034-4.543 1.95-6.295 3.906-7.178 1.567-.708 2.882-.72 3.473-.704zM14.5 23c.288 0 .5.212.5.5 0 .288-.212.5-.5.5-.288 0-.5-.212-.5-.5 0-.288.212-.5.5-.5zM31 24a1 1 0 0 0-1 1 1 1 0 0 0 1 1 1 1 0 0 0 1-1 1 1 0 0 0-1-1z"/></svg>